<?xml version="1.0" standalone="no"?>
<!DOCTYPE svg PUBLIC "-//W3C//DTD SVG 20010904//EN"
 "http://www.w3.org/TR/2001/REC-SVG-20010904/DTD/svg10.dtd">
<svg version="1.0" xmlns="http://www.w3.org/2000/svg"
 width="700.000000pt" height="700.000000pt" viewBox="0 0 700.000000 700.000000"
 preserveAspectRatio="xMidYMid meet">
<metadata>
Created by potrace 1.14, written by Peter Selinger 2001-2017
</metadata>
<g transform="translate(0.000000,700.000000) scale(0.100000,-0.100000)"
fill="#000000" stroke="none">
<path d="M3210 6080 c-1 -14 -4 -56 -8 -95 -14 -156 -7 -624 13 -786 2 -19 6
-59 9 -89 4 -30 8 -64 10 -75 2 -11 7 -40 11 -65 3 -25 9 -58 11 -75 4 -25 27
-141 39 -195 91 -414 279 -851 520 -1210 86 -128 240 -330 252 -330 14 0 202
230 299 365 109 151 148 215 138 224 -5 4 -36 30 -69 57 -163 134 -383 358
-480 489 -17 22 -33 42 -36 45 -9 8 -172 243 -194 281 -11 19 -34 59 -52 89
-55 92 -169 329 -216 450 -41 105 -129 375 -141 432 -3 12 -18 84 -34 158 -39
181 -52 250 -53 286 0 16 -4 38 -9 49 -8 18 -9 18 -10 -5z"/>
<path d="M5556 5523 c-73 -310 -197 -682 -336 -1013 -67 -161 -256 -547 -315
-643 -25 -41 -45 -77 -45 -81 0 -3 -16 -30 -35 -60 -19 -30 -35 -58 -35 -61 0
-3 -9 -18 -19 -33 -10 -15 -71 -106 -134 -202 -737 -1122 -1827 -2008 -3082
-2505 -66 -26 -123 -50 -127 -54 -4 -3 304 -6 685 -6 l692 1 68 47 c37 26 97
68 135 94 248 172 529 410 782 663 142 142 198 201 310 330 30 34 60 68 65 74
36 38 237 303 321 423 320 457 574 949 760 1470 63 178 136 414 159 513 2 8
17 72 34 143 17 70 33 140 36 155 13 71 17 90 25 127 5 22 12 63 15 90 4 28
11 68 15 90 5 22 12 67 15 100 4 33 9 68 11 78 2 10 6 48 10 85 3 36 7 73 9
82 6 30 17 210 13 210 -2 0 -16 -53 -32 -117z"/>
<path d="M4421 5155 c-249 -70 -388 -336 -301 -582 33 -94 123 -199 210 -243
127 -65 300 -64 418 2 264 146 316 498 105 706 -52 52 -139 104 -196 119 -52
13 -184 12 -236 -2z"/>
<path d="M5137 3288 c-145 -344 -288 -623 -454 -888 -92 -146 -220 -332 -290
-420 -24 -30 -59 -73 -76 -95 -92 -115 -176 -207 -336 -365 -233 -232 -397
-369 -669 -557 l-135 -93 104 0 c57 -1 204 -1 327 0 l222 0 68 72 c37 39 74
79 83 88 15 16 218 258 243 290 130 167 297 416 385 574 64 113 87 158 135
253 140 280 233 515 322 818 20 66 38 131 40 145 3 14 9 39 14 55 5 17 12 44
15 60 2 17 9 45 14 63 5 17 8 32 5 32 -2 0 -10 -15 -17 -32z"/>
</g>
</svg>
