<svg id="Layer_1" data-name="Layer 1" xmlns="http://www.w3.org/2000/svg" viewBox="0 0 600 250"><defs><style>.cls-1{fill:#ff4d1d;}.cls-2{fill:#4065ff;}.cls-3{fill:#444445;}.cls-4{fill:#f48020;}.cls-5{fill:#4374ef;}</style></defs><path class="cls-1" d="M187.28,136.18q-.53-8.7-1.22-13.93a43,43,0,0,0,8.16,2.84,29.44,29.44,0,0,0,6.28.8,12.94,12.94,0,0,0,5.66-1,3.31,3.31,0,0,0,2.11-3.09,4.44,4.44,0,0,0-.2-1.32,5.57,5.57,0,0,0-.78-1.43,11,11,0,0,0-1.64-1.74L198,110.58q-2.7-2.3-3.77-3.31a24.45,24.45,0,0,1-3.37-3.88,13.35,13.35,0,0,1-1.76-3.66,13.64,13.64,0,0,1-.55-3.94,14.19,14.19,0,0,1,.87-4.88,14.66,14.66,0,0,1,7.29-8.06,20.55,20.55,0,0,1,6.21-2.06,41.21,41.21,0,0,1,6.82-.55,78.69,78.69,0,0,1,15,1.59c.08,1.88.17,3.6.28,5.16s.37,4.31.78,8.23a36.91,36.91,0,0,0-6.86-2.1,28.67,28.67,0,0,0-5.35-.59,10.67,10.67,0,0,0-5.29,1.18,3.42,3.42,0,0,0-2.1,2.94,4.14,4.14,0,0,0,.32,1.59,7.26,7.26,0,0,0,1.23,1.82,22,22,0,0,0,2.37,2.29q1.47,1.25,4.61,3.69l2.94,2.33c.87.71,1.81,1.57,2.82,2.57a27.4,27.4,0,0,1,2.61,3,16.71,16.71,0,0,1,1.7,2.7,11.19,11.19,0,0,1,1.16,5.14,14.93,14.93,0,0,1-6.74,12.48,20.8,20.8,0,0,1-7.08,3,37.58,37.58,0,0,1-8.15.86A92.65,92.65,0,0,1,187.28,136.18Z"/><path class="cls-1" d="M232.36,137l.82-8.58,1.59-29.07.45-11.72V81.3c4.23,0,8,.08,11.21.08,2.32,0,5.57,0,9.77-.08L273.64,113l2.4,4.65q.45-6.86.94-19.24t.48-17.11q5,.08,8,.08l8-.08-1,12.17-1.83,33.81-.25,9.76q-5.31-.09-9.93-.09-3.84,0-10.62.09c-1.42-2.67-2.46-4.61-3.14-5.8l-6.85-11.65q-3.39-5.72-6.24-11c-1.25-2.2-2.55-4.62-3.88-7.27l-.88,19.37-.42,16.3q-5.06-.09-7.7-.09Q238.52,137,232.36,137Z"/><path class="cls-1" d="M299.25,137q1-10.55,1.5-17.64t.94-18.89q.46-11.78.47-15.62l0-3.59q9.63.08,23.31.08,12.61,0,22.25-.08l-.08,1.34c0,.33-.09,1.51-.2,3.54l-.25,4.44c0,.95-.08,1.91-.08,2.89q-7.87-.33-13.23-.33l-7.94,0c-1.38,0-3.52.08-6.43.18l-.5,9.4c3.21.08,7,.12,11.23.12q2.3,0,12.17-.29-.4,5.24-.77,12.46c-4.71-.06-8.33-.08-10.86-.08q-5.62,0-12.61.28l-.48,9.92h4.69q2.09,0,8.61-.12l8.45-.2q1.88,0,6.28-.33-.49,6-.81,12.5Q334.9,137,323,137l-18,.05Z"/><path class="cls-2" d="M352.83,137q.9-9.31,1.23-14.91.49-8.32,1-21.56.36-10.12.37-14.5V81.3q4.77.12,8.24.12c2.24,0,5.16-.06,8.78-.18s7-.19,10.21-.19a61.41,61.41,0,0,1,9.59.66,22.31,22.31,0,0,1,7.69,2.69,18.86,18.86,0,0,1,6,5.35,24.33,24.33,0,0,1,3.67,7.74,33.15,33.15,0,0,1,1.27,9.12,39.26,39.26,0,0,1-1,8.89,32.86,32.86,0,0,1-2.73,7.69,25,25,0,0,1-4.1,5.9,24.11,24.11,0,0,1-5.37,4.23,23.07,23.07,0,0,1-4.54,2,33.43,33.43,0,0,1-6.25,1.19,93,93,0,0,1-10,.49l-16.5-.13Q358.05,136.91,352.83,137Zm17.65-12.3c1.5.14,3.06.21,4.7.21a33.88,33.88,0,0,0,7.42-.74,11.77,11.77,0,0,0,5.74-3.14,14.62,14.62,0,0,0,3.65-6.19,25.61,25.61,0,0,0,1.18-7.73A17.4,17.4,0,0,0,391.42,99a9.87,9.87,0,0,0-4.68-4.64A19.8,19.8,0,0,0,378.8,93q-2.94,0-6.94.24Z"/><path class="cls-2" d="M415.72,137q1-10.55,1.49-17.64t.94-18.89q.48-11.78.47-15.62l0-3.59q9.63.08,23.31.08,12.63,0,22.26-.08l-.09,1.34c0,.33-.09,1.51-.2,3.54l-.25,4.44c-.05.95-.08,1.91-.08,2.89q-7.87-.33-13.23-.33l-7.94,0c-1.37,0-3.52.08-6.43.18l-.5,9.4c3.22.08,7,.12,11.24.12q2.28,0,12.17-.29c-.28,3.49-.53,7.64-.78,12.46-4.71-.06-8.32-.08-10.85-.08q-5.64,0-12.61.28l-.49,9.92h4.69q2.08,0,8.61-.12l8.45-.2c1.25,0,3.35-.14,6.28-.33q-.48,6-.81,12.5-10-.09-21.85-.09l-18,.05Z"/><path class="cls-2" d="M480.21,137l-1.39-7.52c-.33-1.77-.84-4.24-1.52-7.43l-6.66-30.5L468.23,81.3q5.14.08,8.34.08c2.4,0,5.17,0,8.34-.08.73,4.43,1.32,7.69,1.75,9.76l3.44,16.45q1,5.31,2.37,12.95l1.34-5.72,4.85-18.87L502,81.3q5.6.08,9.47.08c2.81,0,5.95,0,9.44-.08l2.58,17.19,3.56,21.89,1.59-6c.3-1,.62-2.08.94-3.14s1-3.17,2-6.33l5-15.68,2.33-7.92c3.29,0,6,0,8.16,0,2.42,0,5.13,0,8.12,0l-15.83,47.45L536.85,137c-4.09-.06-7.65-.09-10.7-.09q-4.83,0-10.66.09l-.94-5.6L511,112c-.19-1.17-.36-2.37-.51-3.61s-.36-3.16-.63-5.78l-1.43,6.33c-.35,1.42-.72,2.85-1.1,4.29L500.71,137q-6.16-.09-10.25-.09Q486.13,137,480.21,137Z"/><path class="cls-3" d="M186,171.87v-5.36c0-6,3.31-9.22,8.6-9.22s8.1,3.21,8.1,8.24v.16h-3.31v-.26c0-2.81-1.51-5-4.79-5s-5.26,2.26-5.26,6v5.49c0,3.73,1.95,6,5.29,6s4.76-2.09,4.76-5.16v-.43H193.6v-3h9.12v11.32h-3.09v-2.33h-.5c-.52,1.28-1.7,2.78-5,2.78C189.45,181.09,186,177.86,186,171.87Z"/><path class="cls-3" d="M221.93,171.87v-5.36c0-6,3.37-9.22,8.69-9.22s8.73,3.24,8.73,9.22v5.36c0,6-3.41,9.22-8.73,9.22S221.93,177.86,221.93,171.87Zm14,.13v-5.62c0-3.66-2-5.92-5.36-5.92s-5.35,2.26-5.35,5.92V172c0,3.67,2,5.92,5.35,5.92S236,175.67,236,172Z"/><path class="cls-3" d="M256.73,157.75h3.43l5.26,20.66h.41l5.22-20.66h3.47l-6,22.89h-5.79Z"/><path class="cls-3" d="M292.92,157.75h13.65V161H296.26v6.58h9.44v3.2h-9.44v6.7h10.46v3.21h-13.8Z"/><path class="cls-3" d="M325.68,157.75h9.1c4,0,6.77,2.35,6.77,6.11v.36a5.23,5.23,0,0,1-3.34,5.27V170c1.58.1,2.6,1.14,2.6,3v7.59h-3.34v-7.1a1.69,1.69,0,0,0-1.86-1.93H329v9h-3.34Zm8.72,10.66c2.39,0,3.78-1.34,3.78-3.6v-.26c0-2.22-1.33-3.6-3.78-3.6H329v7.46Z"/><path class="cls-3" d="M360.7,157.75h6.43L373,178.28h.49V157.75h3.31v22.89h-6.43l-5.88-20.57H364v20.57H360.7Z"/><path class="cls-3" d="M396.24,171.87v-5.36c0-6,3.37-9.22,8.69-9.22s8.73,3.24,8.73,9.22v5.36c0,6-3.41,9.22-8.73,9.22S396.24,177.86,396.24,171.87Zm14,.13v-5.62c0-3.66-2-5.92-5.35-5.92s-5.35,2.26-5.35,5.92V172c0,3.67,2,5.92,5.35,5.92S410.28,175.67,410.28,172Z"/><path class="cls-3" d="M433.08,157.75h6.28l4.73,20.53h.5l4.73-20.53h6.28v22.89h-3.25V160.23h-.49l-4.7,20.41h-5.63l-4.71-20.41h-.49v20.41h-3.25Z"/><path class="cls-3" d="M475.58,157.75h3.34v22.89h-3.34Z"/><path class="cls-3" d="M498.35,171.87v-5.36c0-6,3.31-9.22,8.6-9.22s8.14,3.24,8.14,8.53V166h-3.31v-.26c0-3.08-1.55-5.27-4.83-5.27s-5.26,2.26-5.26,6v5.49c0,3.73,1.95,6,5.26,6s4.83-2.19,4.83-5.26v-.56h3.31v.46c0,5.3-2.94,8.53-8.14,8.53S498.35,177.86,498.35,171.87Z"/><path class="cls-3" d="M533.27,173.15v-.82h3.31v.82c0,3.27,2,4.84,5,4.84s4.67-1.54,4.67-3.7-1.74-2.94-4.58-3.63l-1.15-.29c-4.17-1-6.8-2.58-6.8-6.6s3-6.48,7.48-6.48,7.86,2.45,7.86,7.26v1.18H545.8v-1.18c0-2.94-1.82-4.15-4.55-4.15s-4.17,1.21-4.17,3.27,1.45,2.91,4.2,3.56l1.15.3c4.18,1,7.18,2.58,7.18,6.7s-3.13,6.86-8,6.86S533.27,178.28,533.27,173.15Z"/><path class="cls-2" d="M171.47,35A201.33,201.33,0,0,1,44.79,180.64H87A186.66,186.66,0,0,0,171.47,35Z"/><path class="cls-1" d="M158.34,105.71c-12.61,31-30.92,56.25-60.16,74.87H118A149.25,149.25,0,0,0,158.34,105.71Z"/><path class="cls-2" d="M138.77,93.7c-22.43-17.59-35.71-42.52-39.24-72.34A119.74,119.74,0,0,0,98.75,35c0,29.66,8.65,55.56,26.52,76.4A117.3,117.3,0,0,0,138.77,93.7Z"/><circle class="cls-4" cx="139.53" cy="63.95" r="13.5"/><path class="cls-5" d="M46.38,206.43H48.2l6,13.8,6-13.8H62v16.72H60.24V210.23l-5.6,12.92h-.91l-5.6-12.92v12.92H46.38Z"/><path class="cls-5" d="M65.86,222.46a3.66,3.66,0,0,1-1.15-2.85,3.76,3.76,0,0,1,1.12-2.91,4.59,4.59,0,0,1,3.22-1,7.75,7.75,0,0,1,4.06,1v-.86a2.93,2.93,0,0,0-.84-2.3,3.85,3.85,0,0,0-2.65-.76,8.32,8.32,0,0,0-3.57.77V212a8,8,0,0,1,1.73-.5,10.78,10.78,0,0,1,2-.19,5.27,5.27,0,0,1,3.84,1.23A4.58,4.58,0,0,1,74.86,216v7.2H73.22v-1.49A5,5,0,0,1,69,223.5,4.42,4.42,0,0,1,65.86,222.46Zm5.76-1A3.4,3.4,0,0,0,73.11,220V218.2a6.69,6.69,0,0,0-1.76-.8,6.94,6.94,0,0,0-2-.26,3.41,3.41,0,0,0-2.24.61,2.36,2.36,0,0,0-.69,1.86c0,1.59,1,2.39,3,2.39A4.59,4.59,0,0,0,71.62,221.48Z"/><path class="cls-5" d="M77.92,211.67h1.7v1.72a4.82,4.82,0,0,1,1.94-1.58,6.12,6.12,0,0,1,2.44-.5,4,4,0,0,1,3.21,1.2,4.61,4.61,0,0,1,1.06,3.2v7.44H86.52v-7.27a3.48,3.48,0,0,0-.68-2.29,2.72,2.72,0,0,0-2.18-.8,4.5,4.5,0,0,0-4,2.39v8H77.92Z"/><path class="cls-5" d="M91.68,222.46a3.66,3.66,0,0,1-1.14-2.85,3.75,3.75,0,0,1,1.11-2.91,4.59,4.59,0,0,1,3.22-1,7.75,7.75,0,0,1,4.06,1v-.86a2.93,2.93,0,0,0-.84-2.3,3.85,3.85,0,0,0-2.65-.76,8.28,8.28,0,0,0-3.56.77V212a7.77,7.77,0,0,1,1.72-.5,10.89,10.89,0,0,1,2-.19,5.26,5.26,0,0,1,3.83,1.23,4.58,4.58,0,0,1,1.25,3.41v7.2H99.05v-1.49a5.05,5.05,0,0,1-4.25,1.84A4.46,4.46,0,0,1,91.68,222.46Zm5.77-1A3.43,3.43,0,0,0,98.93,220V218.2a6.55,6.55,0,0,0-1.76-.8,6.94,6.94,0,0,0-2-.26,3.36,3.36,0,0,0-2.23.61,2.33,2.33,0,0,0-.7,1.86c0,1.59,1,2.39,3,2.39A4.66,4.66,0,0,0,97.45,221.48Z"/><path class="cls-5" d="M107.24,228.45a7.17,7.17,0,0,1-1.77-.52v-1.56a9.07,9.07,0,0,0,3.9.82,4.45,4.45,0,0,0,3.28-1.07,4.4,4.4,0,0,0,1.06-3.21v-1.7A5.17,5.17,0,0,1,109,223.5a5.84,5.84,0,0,1-2.93-.75,5.31,5.31,0,0,1-2.06-2.14,7.16,7.16,0,0,1,0-6.38,5.42,5.42,0,0,1,2-2.15,5.6,5.6,0,0,1,2.91-.77,6.39,6.39,0,0,1,2.79.54,5.17,5.17,0,0,1,2,1.76v-1.94h1.7v11a5.34,5.34,0,0,1-6.08,6A11.48,11.48,0,0,1,107.24,228.45Zm4.88-7.26a4.41,4.41,0,0,0,1.59-2.37V216a4.36,4.36,0,0,0-1.62-2.34,4.53,4.53,0,0,0-2.74-.84,4.23,4.23,0,0,0-2.19.59A4.18,4.18,0,0,0,105.6,215a5.51,5.51,0,0,0,0,4.84,4.1,4.1,0,0,0,1.56,1.61,4.32,4.32,0,0,0,2.19.58A4.54,4.54,0,0,0,112.12,221.19Z"/><path class="cls-5" d="M119.84,221.9a5.91,5.91,0,0,1-1.66-4.47,6.39,6.39,0,0,1,1.49-4.47,5.47,5.47,0,0,1,4.27-1.65,6.17,6.17,0,0,1,3.15.75,4.86,4.86,0,0,1,1.95,2.07,6.6,6.6,0,0,1,.66,3v1h-9.89a3.74,3.74,0,0,0,1.37,2.95,5.64,5.64,0,0,0,3.48,1,10.39,10.39,0,0,0,2.1-.21,8.39,8.39,0,0,0,1.85-.56v1.55a7.52,7.52,0,0,1-1.85.48,13.84,13.84,0,0,1-2.28.19A6.41,6.41,0,0,1,119.84,221.9Zm8.23-5.09a4.19,4.19,0,0,0-1.09-2.94,4.08,4.08,0,0,0-3.06-1.08,3.93,3.93,0,0,0-3,1.11,4.24,4.24,0,0,0-1.09,2.91Z"/><path class="cls-5" d="M141.05,206.43h10.21V208h-8.44v6h6.33v1.58h-6.33v6h8.44v1.58H141.05Z"/><path class="cls-5" d="M155.88,222.78a5.26,5.26,0,0,1-2.15-2.11,7.16,7.16,0,0,1,0-6.48,5.45,5.45,0,0,1,2.17-2.14,6.58,6.58,0,0,1,3.13-.74,9,9,0,0,1,2.2.24,5,5,0,0,1,1.7.76v1.56a6,6,0,0,0-3.74-1.08A4.45,4.45,0,0,0,156,214a4.55,4.55,0,0,0-1.25,3.42,4.5,4.5,0,0,0,1.25,3.41,4.39,4.39,0,0,0,3.17,1.21,7.58,7.58,0,0,0,2.16-.29,6.35,6.35,0,0,0,1.81-.89v1.56a5.08,5.08,0,0,1-1.78.82,9.51,9.51,0,0,1-2.35.25A6.52,6.52,0,0,1,155.88,222.78Z"/><path class="cls-5" d="M167.93,222.76a5.24,5.24,0,0,1-2.14-2.11,6.63,6.63,0,0,1-.76-3.22,6.5,6.5,0,0,1,.77-3.2,5.42,5.42,0,0,1,2.15-2.15,6.71,6.71,0,0,1,6.24,0,5.4,5.4,0,0,1,2.14,2.15,6.4,6.4,0,0,1,.77,3.2,6.52,6.52,0,0,1-.76,3.22,5.16,5.16,0,0,1-2.13,2.11,7,7,0,0,1-6.28,0Zm6.26-2a5.44,5.44,0,0,0,0-6.74,4.49,4.49,0,0,0-6.24,0,5.44,5.44,0,0,0,0,6.74,4.49,4.49,0,0,0,6.24,0Z"/><path class="cls-5" d="M179.83,211.67h1.7v1.72a4.76,4.76,0,0,1,1.94-1.58,6.09,6.09,0,0,1,2.44-.5,4,4,0,0,1,3.21,1.2,4.66,4.66,0,0,1,1,3.2v7.44h-1.74v-7.27a3.48,3.48,0,0,0-.68-2.29,2.73,2.73,0,0,0-2.18-.8,4.53,4.53,0,0,0-4,2.39v8h-1.74Z"/><path class="cls-5" d="M195.34,222.76a5.24,5.24,0,0,1-2.14-2.11,6.63,6.63,0,0,1-.76-3.22,6.5,6.5,0,0,1,.77-3.2,5.42,5.42,0,0,1,2.15-2.15,6.71,6.71,0,0,1,6.24,0,5.4,5.4,0,0,1,2.14,2.15,6.4,6.4,0,0,1,.78,3.2,6.53,6.53,0,0,1-.77,3.22,5.16,5.16,0,0,1-2.13,2.11,7,7,0,0,1-6.28,0Zm6.26-2a5.44,5.44,0,0,0,0-6.74,4.49,4.49,0,0,0-6.24,0,5.44,5.44,0,0,0,0,6.74,4.49,4.49,0,0,0,6.24,0Z"/><path class="cls-5" d="M207.24,211.67h1.68v1.79a4.65,4.65,0,0,1,3.88-2.15,3.89,3.89,0,0,1,2.12.5,2.84,2.84,0,0,1,1.1,1.51,4.38,4.38,0,0,1,1.8-1.52,5.27,5.27,0,0,1,2.22-.49,3.5,3.5,0,0,1,2.83,1.05,4.73,4.73,0,0,1,.89,3.11v7.68H222v-7.46a3.64,3.64,0,0,0-.53-2.25,2.37,2.37,0,0,0-1.9-.65,3.81,3.81,0,0,0-3.22,1.84,5.79,5.79,0,0,1,.07,1.1v7.42h-1.7v-7.42a4,4,0,0,0-.5-2.27,2.21,2.21,0,0,0-1.86-.67c-1.3,0-2.44.77-3.43,2.3v8.06h-1.72Z"/><path class="cls-5" d="M226,227.66v-1.48a3.48,3.48,0,0,0,.72.17,5,5,0,0,0,.78.07,1.79,1.79,0,0,0,1.25-.43,3.86,3.86,0,0,0,.86-1.43l.59-1.49-4.83-11.4h1.86l3.9,9.28,3.61-9.28h1.86l-5,13a6.24,6.24,0,0,1-1.49,2.42,3.12,3.12,0,0,1-2.21.78A7.08,7.08,0,0,1,226,227.66Z"/><path class="cls-5" d="M247.47,206.43h6.13a5.26,5.26,0,0,1,3.75,1.22,5.49,5.49,0,0,1,.27,6.7,4.47,4.47,0,0,1-2.8,1.6l3.77,7.2h-1.84L253,216h-3.79v7.11h-1.77Zm5.9,8a3.71,3.71,0,0,0,2.56-.82,3,3,0,0,0,.93-2.39,3,3,0,0,0-.92-2.51,4,4,0,0,0-2.57-.74h-4.13v6.46Z"/><path class="cls-5" d="M261.67,208.85a1.23,1.23,0,0,1,0-1.63,1.05,1.05,0,0,1,.78-.33,1.07,1.07,0,0,1,.78.33,1.17,1.17,0,0,1,0,1.63,1.07,1.07,0,0,1-.78.33A1.05,1.05,0,0,1,261.67,208.85Zm-.09,2.82h1.75v11.48h-1.75Z"/><path class="cls-5" d="M270.23,228.45a7.17,7.17,0,0,1-1.77-.52v-1.56a9.07,9.07,0,0,0,3.9.82,4.45,4.45,0,0,0,3.28-1.07,4.4,4.4,0,0,0,1.06-3.21v-1.7A5.17,5.17,0,0,1,272,223.5a5.84,5.84,0,0,1-2.93-.75,5.31,5.31,0,0,1-2.06-2.14,7.16,7.16,0,0,1,0-6.38,5.42,5.42,0,0,1,2-2.15,5.6,5.6,0,0,1,2.91-.77,6.36,6.36,0,0,1,2.79.54,5.17,5.17,0,0,1,2,1.76v-1.94h1.7v11a5.33,5.33,0,0,1-6.08,6A11.56,11.56,0,0,1,270.23,228.45Zm4.88-7.26a4.41,4.41,0,0,0,1.59-2.37V216a4.36,4.36,0,0,0-1.62-2.34,4.53,4.53,0,0,0-2.74-.84,4.23,4.23,0,0,0-2.19.59A4.09,4.09,0,0,0,268.6,215a5.42,5.42,0,0,0,0,4.84,4,4,0,0,0,1.55,1.61,4.32,4.32,0,0,0,2.19.58A4.54,4.54,0,0,0,275.11,221.19Z"/><path class="cls-5" d="M281.62,205.48h1.75v7.86a5.17,5.17,0,0,1,4.33-2,4,4,0,0,1,3.21,1.2,4.61,4.61,0,0,1,1.06,3.2v7.44h-1.75v-7.27a3.48,3.48,0,0,0-.68-2.29,2.72,2.72,0,0,0-2.18-.8,4.5,4.5,0,0,0-4,2.39v8h-1.75Z"/><path class="cls-5" d="M296.68,222.55a4,4,0,0,1-.86-2.73V213.1h-1.7v-1.43h1.7v-3.44h1.75v3.44h2.75v1.43h-2.75v6.77a2.44,2.44,0,0,0,.46,1.69,2.22,2.22,0,0,0,1.65.49,3.18,3.18,0,0,0,1.25-.29v1.51a6.55,6.55,0,0,1-1.86.23A3,3,0,0,1,296.68,222.55Z"/><path class="cls-5" d="M344.47,222.43a7.52,7.52,0,0,1-3-3.05,10.42,10.42,0,0,1,0-9.16,7.67,7.67,0,0,1,3-3.06,8.51,8.51,0,0,1,4.3-1.09,8.16,8.16,0,0,1,5.44,1.82v1.82a7.4,7.4,0,0,0-5.31-1.94,7,7,0,0,0-3.45.86,6.1,6.1,0,0,0-2.38,2.45,8.48,8.48,0,0,0,0,7.44,6,6,0,0,0,2.37,2.45,6.84,6.84,0,0,0,3.42.86,8.5,8.5,0,0,0,2.15-.27,6,6,0,0,0,1.73-.73v-5.14H349.4v-1.58h5.11v7.51a7.14,7.14,0,0,1-2.53,1.43,10.64,10.64,0,0,1-3.21.45A8.5,8.5,0,0,1,344.47,222.43Z"/><path class="cls-5" d="M359.67,222.76a5.16,5.16,0,0,1-2.13-2.11,6.52,6.52,0,0,1-.76-3.22,6.4,6.4,0,0,1,.77-3.2,5.4,5.4,0,0,1,2.14-2.15,6.71,6.71,0,0,1,6.24,0,5.42,5.42,0,0,1,2.15,2.15,6.5,6.5,0,0,1,.77,3.2,6.63,6.63,0,0,1-.76,3.22,5.24,5.24,0,0,1-2.14,2.11,7,7,0,0,1-6.28,0Zm6.26-2a5.44,5.44,0,0,0,0-6.74,4.49,4.49,0,0,0-6.24,0,5.44,5.44,0,0,0,0,6.74,4.49,4.49,0,0,0,6.24,0Z"/><path class="cls-5" d="M369.64,211.67h1.86l3.45,9.2,3.45-9.2h1.88l-4.42,11.48H374Z"/><path class="cls-5" d="M383.31,221.9a5.91,5.91,0,0,1-1.66-4.47,6.39,6.39,0,0,1,1.49-4.47,5.47,5.47,0,0,1,4.27-1.65,6.17,6.17,0,0,1,3.15.75,4.92,4.92,0,0,1,1.95,2.07,6.6,6.6,0,0,1,.66,3v1h-9.89a3.74,3.74,0,0,0,1.37,2.95,5.64,5.64,0,0,0,3.48,1,10.46,10.46,0,0,0,2.1-.21,8.39,8.39,0,0,0,1.85-.56v1.55a7.52,7.52,0,0,1-1.85.48,13.84,13.84,0,0,1-2.28.19A6.41,6.41,0,0,1,383.31,221.9Zm8.23-5.09a4.23,4.23,0,0,0-1.09-2.94,4.08,4.08,0,0,0-3.06-1.08,3.93,3.93,0,0,0-3,1.11,4.24,4.24,0,0,0-1.09,2.91Z"/><path class="cls-5" d="M395.89,211.67h1.71v2.25c.87-1.5,2.52-2.25,4.92-2.25v1.48q-3.94,0-4.88,2.75v7.25h-1.75Z"/><path class="cls-5" d="M404.79,211.67h1.7v1.72a4.82,4.82,0,0,1,1.94-1.58,6.12,6.12,0,0,1,2.44-.5,4,4,0,0,1,3.21,1.2,4.66,4.66,0,0,1,1.06,3.2v7.44h-1.75v-7.27a3.48,3.48,0,0,0-.68-2.29,2.72,2.72,0,0,0-2.18-.8,4.5,4.5,0,0,0-4,2.39v8h-1.75Z"/><path class="cls-5" d="M426.82,206.43h1.7L437.26,220V206.43H439v16.72h-1.7l-8.74-13.56v13.56h-1.77Z"/><path class="cls-5" d="M442.9,222.46a3.63,3.63,0,0,1-1.15-2.85,3.72,3.72,0,0,1,1.12-2.91,4.59,4.59,0,0,1,3.22-1,7.77,7.77,0,0,1,4.06,1v-.86a2.93,2.93,0,0,0-.84-2.3,3.88,3.88,0,0,0-2.66-.76,8.31,8.31,0,0,0-3.56.77V212a8,8,0,0,1,1.73-.5,10.78,10.78,0,0,1,2-.19,5.27,5.27,0,0,1,3.84,1.23A4.58,4.58,0,0,1,451.9,216v7.2h-1.64v-1.49A5,5,0,0,1,446,223.5,4.42,4.42,0,0,1,442.9,222.46Zm5.76-1a3.4,3.4,0,0,0,1.49-1.44V218.2a6.69,6.69,0,0,0-1.76-.8,7,7,0,0,0-2-.26,3.39,3.39,0,0,0-2.24.61,2.36,2.36,0,0,0-.69,1.86c0,1.59,1,2.39,2.95,2.39A4.62,4.62,0,0,0,448.66,221.48Z"/><path class="cls-5" d="M456,222.55a4,4,0,0,1-.85-2.73V213.1h-1.7v-1.43h1.7v-3.44h1.74v3.44h2.75v1.43h-2.75v6.77a2.49,2.49,0,0,0,.46,1.69,2.22,2.22,0,0,0,1.65.49,3.14,3.14,0,0,0,1.25-.29v1.51a6.55,6.55,0,0,1-1.86.23A3,3,0,0,1,456,222.55Z"/><path class="cls-5" d="M463,208.85a1.2,1.2,0,0,1,0-1.63,1,1,0,0,1,.77-.33,1.07,1.07,0,0,1,.79.33,1.17,1.17,0,0,1,0,1.63,1.07,1.07,0,0,1-.79.33A1,1,0,0,1,463,208.85Zm-.09,2.82h1.75v11.48H462.9Z"/><path class="cls-5" d="M470.49,222.76a5.28,5.28,0,0,1-2.13-2.11,7.12,7.12,0,0,1,0-6.42,5.4,5.4,0,0,1,2.14-2.15,6.71,6.71,0,0,1,6.24,0,5.42,5.42,0,0,1,2.15,2.15,7.12,7.12,0,0,1,0,6.42,5.28,5.28,0,0,1-2.13,2.11,7.05,7.05,0,0,1-6.29,0Zm6.26-2a5.44,5.44,0,0,0,0-6.74,4.49,4.49,0,0,0-6.24,0,5.48,5.48,0,0,0,0,6.74,4.49,4.49,0,0,0,6.24,0Z"/><path class="cls-5" d="M482.39,211.67h1.71v1.72a4.7,4.7,0,0,1,1.94-1.58,6,6,0,0,1,2.43-.5,4.08,4.08,0,0,1,3.22,1.2,4.66,4.66,0,0,1,1.05,3.2v7.44H491v-7.27a3.42,3.42,0,0,0-.68-2.29,2.72,2.72,0,0,0-2.18-.8,4.5,4.5,0,0,0-4,2.39v8h-1.75Z"/><path class="cls-5" d="M504,206.43h1.84l3.9,13.56,3.91-13.56H515L518.86,220l3.9-13.58h1.84l-4.74,16.72h-1.73l-3.86-13.66-3.83,13.66h-1.73Z"/><path class="cls-5" d="M526.83,221.9a5.91,5.91,0,0,1-1.66-4.47,6.44,6.44,0,0,1,1.49-4.47,5.47,5.47,0,0,1,4.27-1.65,6.17,6.17,0,0,1,3.15.75,4.94,4.94,0,0,1,2,2.07,6.73,6.73,0,0,1,.65,3v1H526.8a3.74,3.74,0,0,0,1.37,2.95,5.65,5.65,0,0,0,3.49,1,10.36,10.36,0,0,0,2.09-.21,8.39,8.39,0,0,0,1.85-.56v1.55a7.52,7.52,0,0,1-1.85.48,13.67,13.67,0,0,1-2.28.19A6.43,6.43,0,0,1,526.83,221.9Zm8.23-5.09a4.19,4.19,0,0,0-1.09-2.94,4.08,4.08,0,0,0-3.06-1.08,3.93,3.93,0,0,0-3,1.11,4.24,4.24,0,0,0-1.09,2.91Z"/><path class="cls-5" d="M539.42,205.48h1.74v17.67h-1.74Z"/><path class="cls-5" d="M544.34,205.48h1.75v17.67h-1.75Z"/><circle class="cls-5" cx="319.63" cy="217.3" r="3.49"/></svg>