<svg id="Layer_1" data-name="Layer 1" xmlns="http://www.w3.org/2000/svg" viewBox="0 0 600 250"><defs><style>.cls-1{fill:#ff4d1d;}.cls-2{fill:#4065ff;}.cls-3{fill:#444445;}.cls-4{fill:#f48020;}</style></defs><path class="cls-1" d="M181.62,161.71q-.57-9.14-1.29-14.62a46.2,46.2,0,0,0,8.57,3,30.75,30.75,0,0,0,6.6.83,13.57,13.57,0,0,0,5.95-1.09,3.48,3.48,0,0,0,2.21-3.24,4.3,4.3,0,0,0-.22-1.39,5.47,5.47,0,0,0-.81-1.5,11.66,11.66,0,0,0-1.72-1.83l-8.08-7q-2.84-2.4-4-3.47a26,26,0,0,1-3.55-4.08,13.82,13.82,0,0,1-1.85-3.84,14.67,14.67,0,0,1-.58-4.13,14.85,14.85,0,0,1,.92-5.13,15.81,15.81,0,0,1,2.77-4.7,16.05,16.05,0,0,1,4.89-3.77,21.78,21.78,0,0,1,6.52-2.17,44.08,44.08,0,0,1,7.16-.57,82,82,0,0,1,15.78,1.67c.09,2,.19,3.78.3,5.42s.39,4.53.82,8.65a38.66,38.66,0,0,0-7.21-2.21,30.16,30.16,0,0,0-5.61-.63,11.21,11.21,0,0,0-5.56,1.25c-1.47.83-2.21,1.86-2.21,3.09a4.24,4.24,0,0,0,.35,1.67,7.43,7.43,0,0,0,1.28,1.91,22.43,22.43,0,0,0,2.49,2.4c1,.87,2.64,2.16,4.85,3.88l3.08,2.45a35.86,35.86,0,0,1,3,2.7,29.21,29.21,0,0,1,2.75,3.13,18,18,0,0,1,1.78,2.83,11.89,11.89,0,0,1,1.22,5.4,15.68,15.68,0,0,1-7.08,13.1,21.76,21.76,0,0,1-7.44,3.16,39.33,39.33,0,0,1-8.55.9A96.78,96.78,0,0,1,181.62,161.71Z"/><path class="cls-1" d="M229,162.61l.85-9,1.68-30.54.47-12.31v-6.69q6.66.09,11.77.09,3.64,0,10.26-.09l18.31,33.29,2.52,4.9q.5-7.22,1-20.21t.51-18c3.51.06,6.33.09,8.44.09q1.46,0,8.4-.09l-1,12.78-1.93,35.51L290,162.61q-5.58-.08-10.43-.08-4,0-11.16.08-2.22-4.2-3.29-6.09l-7.2-12.23q-3.56-6-6.55-11.5c-1.32-2.31-2.67-4.86-4.07-7.63l-.92,20.33-.44,17.12c-3.55-.05-6.24-.08-8.1-.08Q235.44,162.53,229,162.61Z"/><path class="cls-1" d="M299.22,162.61q1.06-11.06,1.57-18.53t1-19.83q.5-12.37.5-16.41l0-3.77q10.11.09,24.48.09,13.25,0,23.37-.09l-.08,1.41c0,.34-.11,1.58-.22,3.72l-.26,4.66c0,1-.08,2-.08,3q-8.28-.33-13.9-.34l-8.34,0c-1.44,0-3.7.08-6.75.2l-.53,9.86q5.07.14,11.8.13,2.4,0,12.79-.3-.43,5.49-.82,13.08-7.41-.09-11.4-.09-5.91,0-13.24.3l-.51,10.42h4.92q2.19,0,9.05-.12l8.87-.22q2,0,6.6-.34-.51,6.34-.86,13.12-10.47-.08-22.94-.08l-18.87,0Z"/><path class="cls-2" d="M355.49,162.61q.94-9.78,1.29-15.65.53-8.75,1-22.65c.25-7.09.39-12.16.39-15.22v-5q5,.14,8.66.13t9.21-.19q5.71-.2,10.72-.2a64.85,64.85,0,0,1,10.08.69,23.66,23.66,0,0,1,8.08,2.83,19.9,19.9,0,0,1,6.28,5.62,25.51,25.51,0,0,1,3.86,8.13,34.52,34.52,0,0,1,1.33,9.58,41.37,41.37,0,0,1-1,9.33,34.79,34.79,0,0,1-2.87,8.08,26.33,26.33,0,0,1-4.31,6.2,25.48,25.48,0,0,1-5.64,4.44,23.82,23.82,0,0,1-4.76,2.14,35.43,35.43,0,0,1-6.57,1.25,96.72,96.72,0,0,1-10.5.51l-17.33-.13C361.79,162.48,359.15,162.53,355.49,162.61ZM374,149.7c1.57.15,3.21.22,4.93.22a36,36,0,0,0,7.8-.77,12.43,12.43,0,0,0,6-3.31,15.22,15.22,0,0,0,3.84-6.49,27.36,27.36,0,0,0,1.24-8.13,18.26,18.26,0,0,0-1.85-8.6,10.33,10.33,0,0,0-4.91-4.87,20.86,20.86,0,0,0-8.34-1.37q-3.09,0-7.29.26Z"/><path class="cls-2" d="M421.53,162.61q1.08-11.06,1.57-18.53t1-19.83q.5-12.37.5-16.41l0-3.77q10.11.09,24.48.09,13.25,0,23.37-.09l-.09,1.41q0,.51-.21,3.72l-.26,4.66c-.06,1-.08,2-.08,3q-8.28-.33-13.9-.34l-8.34,0c-1.45,0-3.7.08-6.76.2l-.52,9.86q5.07.14,11.8.13,2.4,0,12.78-.3-.42,5.49-.81,13.08-7.41-.09-11.4-.09-5.92,0-13.25.3l-.51,10.42h4.93c1.46,0,4.47,0,9.05-.12l8.87-.22q2,0,6.6-.34-.53,6.34-.86,13.12-10.47-.08-22.94-.08l-18.88,0Z"/><path class="cls-2" d="M489.27,162.61l-1.46-7.89q-.53-2.79-1.59-7.8l-7-32-2.53-10.81q5.4.09,8.76.09,3.76,0,8.75-.09,1.16,7,1.85,10.25l3.6,17.28q1.13,5.58,2.49,13.6l1.42-6,5.09-19.82,3.51-15.31q5.87.09,10,.09,4.41,0,9.9-.09l2.71,18.06,3.75,23,1.67-6.3q.47-1.63,1-3.3c.34-1.12,1-3.33,2.14-6.65l5.23-16.47,2.44-8.32c3.46,0,6.31,0,8.57,0,2.54,0,5.39,0,8.53,0l-16.63,49.84-2.66,8.7q-6.43-.08-11.23-.08-5.07,0-11.2.08l-1-5.87-3.77-20.46c-.2-1.23-.38-2.49-.54-3.8s-.37-3.32-.66-6.06l-1.5,6.64c-.37,1.49-.76,3-1.16,4.51l-6.91,25q-6.48-.08-10.77-.08Q495.49,162.53,489.27,162.61Z"/><path class="cls-3" d="M180.29,199.2v-5.63c0-6.28,3.47-9.68,9-9.68s8.51,3.36,8.51,8.65v.17h-3.48v-.27c0-3-1.59-5.22-5-5.22s-5.52,2.37-5.52,6.28v5.77c0,3.91,2,6.32,5.55,6.32s5-2.2,5-5.43v-.44h-6.1v-3.2h9.58V208.4h-3.25V206h-.52c-.55,1.33-1.78,2.91-5.29,2.91C183.89,208.88,180.29,205.48,180.29,199.2Z"/><path class="cls-3" d="M218,199.2v-5.63c0-6.28,3.54-9.68,9.13-9.68s9.16,3.4,9.16,9.68v5.63c0,6.28-3.58,9.68-9.16,9.68S218,205.48,218,199.2Zm14.75.14v-5.91c0-3.84-2.08-6.21-5.62-6.21s-5.62,2.37-5.62,6.21v5.91c0,3.84,2.07,6.21,5.62,6.21S232.76,203.18,232.76,199.34Z"/><path class="cls-3" d="M254.56,184.37h3.6l5.52,21.7h.43l5.49-21.7h3.64l-6.31,24h-6.07Z"/><path class="cls-3" d="M292.57,184.37h14.32v3.36H296.08v6.9H306V198h-9.9v7h11v3.36H292.57Z"/><path class="cls-3" d="M327,184.37h9.55c4.23,0,7.12,2.47,7.12,6.42v.38a5.48,5.48,0,0,1-3.51,5.52v.55c1.66.11,2.73,1.21,2.73,3.2v8h-3.51V201a1.77,1.77,0,0,0-2-2h-6.92v9.47H327Zm9.16,11.19c2.5,0,4-1.41,4-3.78v-.27c0-2.34-1.4-3.78-4-3.78h-5.65v7.83Z"/><path class="cls-3" d="M363.75,184.37h6.76l6.17,21.56h.52V184.37h3.47v24h-6.75l-6.18-21.59h-.52V208.4h-3.47Z"/><path class="cls-3" d="M401.08,199.2v-5.63c0-6.28,3.54-9.68,9.13-9.68s9.16,3.4,9.16,9.68v5.63c0,6.28-3.58,9.68-9.16,9.68S401.08,205.48,401.08,199.2Zm14.75.14v-5.91c0-3.84-2.08-6.21-5.62-6.21s-5.62,2.37-5.62,6.21v5.91c0,3.84,2.08,6.21,5.62,6.21S415.83,203.18,415.83,199.34Z"/><path class="cls-3" d="M439.77,184.37h6.6l5,21.56h.52l5-21.56h6.59v24H460V187h-.52l-4.94,21.42h-5.91L443.7,187h-.52V208.4h-3.41Z"/><path class="cls-3" d="M484.41,184.37h3.51v24h-3.51Z"/><path class="cls-3" d="M508.32,199.2v-5.63c0-6.28,3.48-9.68,9-9.68s8.55,3.4,8.55,9V193h-3.48v-.27c0-3.23-1.62-5.53-5.07-5.53s-5.52,2.37-5.52,6.28v5.77c0,3.91,2.05,6.28,5.52,6.28s5.07-2.3,5.07-5.52v-.59h3.48v.48c0,5.56-3.09,9-8.55,9S508.32,205.48,508.32,199.2Z"/><path class="cls-3" d="M545,200.54v-.86h3.48v.86c0,3.43,2.08,5.08,5.29,5.08s4.91-1.61,4.91-3.88-1.82-3.09-4.81-3.81l-1.2-.31c-4.39-1.06-7.15-2.71-7.15-6.93s3.15-6.8,7.86-6.8,8.25,2.57,8.25,7.62v1.24h-3.47v-1.24c0-3.09-1.92-4.36-4.78-4.36s-4.38,1.27-4.38,3.43,1.52,3.06,4.42,3.75l1.2.3c4.38,1,7.53,2.72,7.53,7s-3.28,7.21-8.38,7.21S545,205.93,545,200.54Z"/><path class="cls-2" d="M165,55.41a211.42,211.42,0,0,1-133,153H76.3A196,196,0,0,0,165,55.41Z"/><path class="cls-1" d="M151.22,129.71C138,162.29,118.74,188.79,88,208.34h20.85A156.79,156.79,0,0,0,151.22,129.71Z"/><path class="cls-2" d="M130.66,117.09c-23.55-18.47-37.5-44.65-41.21-76a127.23,127.23,0,0,0-.82,14.29c0,31.16,9.09,58.35,27.86,80.25A122.64,122.64,0,0,0,130.66,117.09Z"/><circle class="cls-4" cx="131.46" cy="85.85" r="14.18"/></svg>