<svg width="24" height="20" viewBox="0 0 24 20" fill="none" xmlns="http://www.w3.org/2000/svg">
<path d="M20.1667 0.666656H3.83337C2.90512 0.666656 2.01488 1.03541 1.3585 1.69178C0.702123 2.34816 0.333374 3.2384 0.333374 4.16666V15.8333C0.333374 16.7616 0.702123 17.6518 1.3585 18.3082C2.01488 18.9646 2.90512 19.3333 3.83337 19.3333H20.1667C21.095 19.3333 21.9852 18.9646 22.6416 18.3082C23.298 17.6518 23.6667 16.7616 23.6667 15.8333V4.16666C23.6667 3.2384 23.298 2.34816 22.6416 1.69178C21.9852 1.03541 21.095 0.666656 20.1667 0.666656V0.666656ZM19.385 2.99999L12 8.54166L4.61504 2.99999H19.385ZM20.1667 17H3.83337C3.52395 17 3.22721 16.8771 3.00842 16.6583C2.78962 16.4395 2.66671 16.1427 2.66671 15.8333V4.45832L11.3 10.9333C11.502 11.0848 11.7476 11.1667 12 11.1667C12.2525 11.1667 12.4981 11.0848 12.7 10.9333L21.3334 4.45832V15.8333C21.3334 16.1427 21.2105 16.4395 20.9917 16.6583C20.7729 16.8771 20.4761 17 20.1667 17Z" fill="white"/>
</svg>
