<svg width="23" height="25" viewBox="0 0 23 25" fill="none" xmlns="http://www.w3.org/2000/svg">
<path d="M5.754 14.025C5.5375 14.025 5.32988 14.1053 5.1768 14.2483C5.02371 14.3913 4.93771 14.5853 4.93771 14.7875V17.8375C4.93771 18.0397 5.02371 18.2337 5.1768 18.3767C5.32988 18.5197 5.5375 18.6 5.754 18.6C5.97049 18.6 6.17811 18.5197 6.3312 18.3767C6.48428 18.2337 6.57028 18.0397 6.57028 17.8375V17.5843H7.11556C7.62085 17.5843 8.10545 17.3968 8.46274 17.0631C8.82004 16.7293 9.02076 16.2767 9.02076 15.8047C9.02076 15.3327 8.82004 14.88 8.46274 14.5462C8.10545 14.2125 7.62085 14.025 7.11556 14.025H5.754ZM7.11556 16.0593H6.57028V15.55H7.11556C7.18787 15.55 7.25721 15.5768 7.30834 15.6246C7.35947 15.6723 7.3882 15.7371 7.3882 15.8047C7.3882 15.8722 7.35947 15.937 7.30834 15.9847C7.25721 16.0325 7.18787 16.0593 7.11556 16.0593ZM14.7331 14.786C14.7336 14.584 14.8197 14.3904 14.9728 14.2478C15.1258 14.1051 15.3332 14.025 15.5494 14.025H17.1787C17.3952 14.025 17.6028 14.1053 17.7559 14.2483C17.909 14.3913 17.995 14.5853 17.995 14.7875C17.995 14.9897 17.909 15.1837 17.7559 15.3267C17.6028 15.4697 17.3952 15.55 17.1787 15.55H16.3657V16.0609H17.1787C17.3952 16.0609 17.6028 16.1412 17.7559 16.2842C17.909 16.4272 17.995 16.6211 17.995 16.8234C17.995 17.0256 17.909 17.2195 17.7559 17.3625C17.6028 17.5055 17.3952 17.5859 17.1787 17.5859H16.3657V17.836C16.3659 17.9361 16.345 18.0353 16.3042 18.1279C16.2634 18.2205 16.2034 18.3046 16.1278 18.3756C15.975 18.5189 15.7675 18.5996 15.551 18.6C15.3345 18.6004 15.1267 18.5204 14.9734 18.3777C14.82 18.235 14.7336 18.0412 14.7331 17.839V16.8218L14.7364 14.786H14.7331ZM10.6517 14.025C10.4352 14.025 10.2276 14.1053 10.0745 14.2483C9.92142 14.3913 9.83541 14.5853 9.83541 14.7875V17.8375C9.83541 18.0397 9.92142 18.2337 10.0745 18.3767C10.2276 18.5197 10.4352 18.6 10.6517 18.6H11.4712C12.1207 18.6 12.7436 18.359 13.2028 17.93C13.6621 17.501 13.9201 16.9192 13.9201 16.3125C13.9201 15.7058 13.6621 15.124 13.2028 14.695C12.7436 14.266 12.1207 14.025 11.4712 14.025H10.6517ZM11.468 17.075V15.55H11.4712C11.6877 15.55 11.8954 15.6303 12.0484 15.7733C12.2015 15.9163 12.2875 16.1103 12.2875 16.3125C12.2875 16.5147 12.2015 16.7087 12.0484 16.8517C11.8954 16.9947 11.6877 17.075 11.4712 17.075H11.468ZM11.4712 7.16249V0.299988H4.12143C3.47195 0.299988 2.84908 0.540992 2.38983 0.969981C1.93058 1.39897 1.67258 1.9808 1.67258 2.58749V11.1C1.19519 11.2577 0.781852 11.5497 0.489482 11.9359C0.197111 12.3221 0.0400806 12.7834 0.0400085 13.2564V19.361C0.0400806 19.8339 0.197111 20.2953 0.489482 20.6815C0.781852 21.0676 1.19519 21.3597 1.67258 21.5173V22.4125C1.67258 23.0192 1.93058 23.601 2.38983 24.03C2.84908 24.459 3.47195 24.7 4.12143 24.7H18.8145C19.464 24.7 20.0869 24.459 20.5461 24.03C21.0054 23.601 21.2634 23.0192 21.2634 22.4125V21.5173C21.7402 21.3591 22.1528 21.0669 22.4446 20.6808C22.7363 20.2946 22.8929 19.8336 22.8927 19.361V13.2564C22.8929 12.7838 22.7363 12.3227 22.4446 11.9366C22.1528 11.5504 21.7402 11.2582 21.2634 11.1V9.44999H13.9168C13.2674 9.44999 12.6445 9.20898 12.1852 8.77999C11.726 8.35101 11.468 7.76917 11.468 7.16249H11.4712ZM2.49213 12.4939H20.4455C20.662 12.4939 20.8696 12.5742 21.0227 12.7172C21.1758 12.8602 21.2618 13.0542 21.2618 13.2564V19.361C21.2618 19.5632 21.1758 19.7571 21.0227 19.9001C20.8696 20.0431 20.662 20.1235 20.4455 20.1235H2.49213C2.27563 20.1235 2.06801 20.0431 1.91493 19.9001C1.76184 19.7571 1.67584 19.5632 1.67584 19.361V13.2564C1.67584 13.0542 1.76184 12.8602 1.91493 12.7172C2.06801 12.5742 2.27563 12.4939 2.49213 12.4939ZM13.1006 7.16249V0.681238L20.8552 7.92499H13.9168C13.7003 7.92499 13.4927 7.84465 13.3396 7.70166C13.1866 7.55866 13.1006 7.36472 13.1006 7.16249Z" fill="white"/>
</svg>
